<?xml version="1.0" encoding="UTF-8" standalone="no"?>
<svg
   width="20"
   height="20"
   viewBox="0 0 20 20"
   version="1.1"
   id="svg-icon"
   xmlns="http://www.w3.org/2000/svg"
   xmlns:svg="http://www.w3.org/2000/svg">
  <defs
     id="defs1" />
  <g
     id="g1">
    <path
       id="path1"
       style="fill:#ff0000;stroke:none"
       d="M 6 0 L 6 2 L 20 2 L 20 0 L 6 0 z M 9 4 L 9 6 L 17 6 L 17 4 L 9 4 z M 6 8 A 6 6 0 0 0 0 14 A 6 6 0 0 0 6 20 A 6 6 0 0 0 12 14 A 6 6 0 0 0 6 8 z M 12 8 L 12 10 L 14 10 L 14 8 L 12 8 z M 6 9 A 5 5 0 0 1 11 14 A 5 5 0 0 1 6 19 A 5 5 0 0 1 1 14 A 5 5 0 0 1 6 9 z M 6 11 A 3 3 0 0 0 3 14 A 3 3 0 0 0 6 17 A 3 3 0 0 0 9 14 A 3 3 0 0 0 6 11 z " />
  </g>
</svg>
