<?xml version="1.0" encoding="UTF-8" standalone="no"?>
<svg
   width="20"
   height="20"
   viewBox="0 0 20 20"
   version="1.1"
   id="svg-visible-0"
   xmlns="http://www.w3.org/2000/svg"
   xmlns:svg="http://www.w3.org/2000/svg">
  <defs
     id="defs1" />
  <g
     id="layer1">
    <path
       id="path1"
       style="stroke:none;fill:#ff0000;fill-opacity:1"
       d="m 10,1 a 9,9 0 0 1 9,9 9,9 0 0 1 -9,9 9,9 0 0 1 -9,-9 9,9 0 0 1 9,-9 z M 10,0 A 10,10 0 0 0 0,10 10,10 0 0 0 10,20 10,10 0 0 0 20,10 10,10 0 0 0 10,0 Z" />
  </g>
</svg>
