<?xml version="1.0" encoding="UTF-8" standalone="no"?>
<svg
   width="20"
   height="20"
   viewBox="0 0 20 20"
   version="1.1"
   id="svg-icon"
   xmlns="http://www.w3.org/2000/svg"
   xmlns:svg="http://www.w3.org/2000/svg">
  <defs
     id="defs1" />
  <g
     id="g2">
    <path
       id="path2"
       style="fill:#ff0000;stroke:none"
       d="M 13,13.803847 H 7 L 10,19 Z" />
    <path
       id="path3"
       style="fill:#ff0000;stroke:none"
       d="M 13,6.1961531 H 7 L 10,1 Z" />
    <path
       id="path1"
       style="fill:#ff0000;stroke:none"
       d="m 10,1 a 9,9 0 0 1 9,9 9,9 0 0 1 -9,9 9,9 0 0 1 -9,-9 9,9 0 0 1 9,-9 z M 10,0 A 10,10 0 0 0 0,10 10,10 0 0 0 10,20 10,10 0 0 0 20,10 10,10 0 0 0 10,0 Z" />
  </g>
</svg>
