<?xml version="1.0" encoding="UTF-8" standalone="no"?>
<svg
   width="20"
   height="20"
   viewBox="0 0 20 20"
   version="1.1"
   id="svg-cross-45"
   xmlns="http://www.w3.org/2000/svg"
   xmlns:svg="http://www.w3.org/2000/svg">
  <defs
     id="defs1" />
  <g
     id="layer1"
     transform="rotate(45,10,10)">
    <path
       id="path1"
       style="stroke:none;fill:#ff0000;fill-opacity:1"
       d="M 10 0 A 10 10 0 0 0 0 10 A 10 10 0 0 0 10 20 A 10 10 0 0 0 20 10 A 10 10 0 0 0 10 0 z M 10 1 A 9 9 0 0 1 19 10 A 9 9 0 0 1 10 19 A 9 9 0 0 1 1 10 A 9 9 0 0 1 10 1 z M 9 4 L 9 9 L 4 9 L 4 11 L 9 11 L 9 16 L 11 16 L 11 11 L 16 11 L 16 9 L 11 9 L 11 4 L 9 4 z " />
  </g>
</svg>
