<?xml version="1.0" encoding="UTF-8" standalone="no"?>
<svg
   width="20"
   height="20"
   viewBox="0 0 20 20"
   version="1.1"
   id="svg-icon"
   xmlns="http://www.w3.org/2000/svg"
   xmlns:svg="http://www.w3.org/2000/svg">
  <defs
     id="defs1" />
  <g
     id="g1">
    <path
       id="path1"
       style="fill:#ff0000;stroke:none"
       d="M 10,0 C 4.4771525,0 0,4.4771525 0,10 c 0,5.522847 4.4771525,10 10,10 0.337499,0 0.671094,-0.01617 1,-0.04883 V 18.94531 C 10.671615,18.98162 10.338065,19 10,19 5.0294373,19 1,14.970563 1,10 1,5.0294373 5.0294373,1 10,1 c 4.970563,0 9,4.0294373 9,9 0,0.338009 -0.01839,0.671666 -0.05469,1 h 1.00586 C 19.983828,10.671094 20,10.337499 20,10 20,4.4771525 15.522847,0 10,0 Z m 3,14 v 6 h 7 v -5 h -2 v -1 z m 1,1 h 3 v 1 h 2 v 3 H 14 Z M 13.535534,5.0502528 10,8.5857863 6.464466,5.0502528 5.050253,6.4644664 8.585786,10 5.050253,13.535534 6.464466,14.949747 10,11.414214 11.585786,13 h 2.828427 l -2.999999,-3 3.535533,-3.5355336 z" />
  </g>
</svg>
