<?xml version="1.0" encoding="UTF-8" standalone="no"?>
<svg
   width="20"
   height="20"
   viewBox="0 0 20 20"
   version="1.1"
   id="svg-icon"
   xmlns="http://www.w3.org/2000/svg"
   xmlns:svg="http://www.w3.org/2000/svg">
  <defs
     id="defs1" />
  <g
     id="g19">
    <path
       id="path15"
       style="fill:#ff0000;stroke:none;stroke-width:1.7"
       d="M 10 0 A 10 10 0 0 0 0 10 A 10 10 0 0 0 10 20 A 10 10 0 0 0 20 10 A 10 10 0 0 0 10 0 z M 10 1 A 9 9 0 0 1 19 10 A 9 9 0 0 1 10 19 A 9 9 0 0 1 1 10 A 9 9 0 0 1 10 1 z M 6.5957031 3.4707031 A 4.0469456 5.0656605 0 0 0 2.5488281 8.5371094 A 4.0469456 5.0656605 0 0 0 6.5957031 13.603516 A 4.0469456 5.0656605 0 0 0 10 11.277344 A 4.0469456 5.0656605 0 0 0 13.404297 13.603516 A 4.0469456 5.0656605 0 0 0 17.451172 8.5371094 A 4.0469456 5.0656605 0 0 0 13.404297 3.4707031 A 4.0469456 5.0656605 0 0 0 10 5.796875 A 4.0469456 5.0656605 0 0 0 6.5957031 3.4707031 z M 6.3105469 4.2832031 A 3.0447102 4.0632877 0 0 1 9.3554688 8.3457031 A 3.0447102 4.0632877 0 0 1 6.3105469 12.410156 A 3.0447102 4.0632877 0 0 1 3.265625 8.3457031 A 3.0447102 4.0632877 0 0 1 6.3105469 4.2832031 z M 13.117188 4.2832031 A 3.0447102 4.0632877 0 0 1 16.162109 8.3457031 A 3.0447102 4.0632877 0 0 1 13.117188 12.410156 A 3.0447102 4.0632877 0 0 1 10.074219 8.3457031 A 3.0447102 4.0632877 0 0 1 13.117188 4.2832031 z M 5.4980469 5.3125 A 1.6111774 1.6118665 0 0 0 3.8867188 6.9238281 A 1.6111774 1.6118665 0 0 0 5.4980469 8.5371094 A 1.6111774 1.6118665 0 0 0 7.109375 6.9238281 A 1.6111774 1.6118665 0 0 0 5.4980469 5.3125 z M 12.304688 5.3125 A 1.6111774 1.6118665 0 0 0 10.693359 6.9238281 A 1.6111774 1.6118665 0 0 0 12.304688 8.5371094 A 1.6111774 1.6118665 0 0 0 13.916016 6.9238281 A 1.6111774 1.6118665 0 0 0 12.304688 5.3125 z " />
  </g>
</svg>
