<?xml version="1.0" encoding="UTF-8" standalone="no"?>
<svg
   width="20"
   height="20"
   viewBox="0 0 20 20"
   version="1.1"
   id="svg-icon"
   xmlns="http://www.w3.org/2000/svg"
   xmlns:svg="http://www.w3.org/2000/svg">
  <defs
     id="defs1" />
  <g
     id="defs1">
    <path
       id="path1"
       style="fill:#ff0000;fill-opacity:1;stroke:none"
       d="M 10 0 A 10 10 0 0 0 0 10 A 10 10 0 0 0 10 20 A 10 10 0 0 0 20 10 A 10 10 0 0 0 10 0 z M 10 1 A 9 9 0 0 1 19 10 A 9 9 0 0 1 10 19 A 9 9 0 0 1 1 10 A 9 9 0 0 1 10 1 z M 15.191406 3.6054688 L 12.175781 6.6210938 C 11.488958 6.3213844 10.753729 6.1523438 9.8613281 6.1523438 C 7.089651 6.1523438 5.8230732 7.7738789 2.8632812 9.9238281 C 4.1429456 10.853358 5.2728481 11.715248 6.4023438 12.394531 L 3.6054688 15.191406 L 4.8085938 16.394531 L 7.9921875 13.210938 C 8.9776706 13.621859 10.012455 13.863281 11.189453 13.863281 C 14.39863 13.863281 14.912797 11.386279 16.857422 9.9238281 C 15.570305 8.988885 14.60463 8.1530033 13.695312 7.5078125 L 16.394531 4.8085938 L 15.191406 3.6054688 z M 8.109375 7.3984375 A 1.5350523 1.5350523 0 0 1 9.6445312 8.9335938 A 1.5350523 1.5350523 0 0 1 8.109375 10.46875 A 1.5350523 1.5350523 0 0 1 6.5722656 8.9335938 A 1.5350523 1.5350523 0 0 1 8.109375 7.3984375 z " />
  </g>
</svg>
