<?xml version="1.0" encoding="UTF-8" standalone="no"?>
<svg
   width="20"
   height="20"
   viewBox="0 0 20 20"
   version="1.1"
   id="svg-eye-open"
   xmlns="http://www.w3.org/2000/svg"
   xmlns:svg="http://www.w3.org/2000/svg">
  <defs
     id="defs1" />
  <g
     id="layer1">
    <path
       id="path1"
       style="fill:#ff0000;fill-opacity:1;stroke:none"
       d="M 10 0 A 10 10 0 0 0 0 10 A 10 10 0 0 0 10 20 A 10 10 0 0 0 20 10 A 10 10 0 0 0 10 0 z M 10 1 A 9 9 0 0 1 19 10 A 9 9 0 0 1 10 19 A 9 9 0 0 1 1 10 A 9 9 0 0 1 10 1 z M 9.8613281 6.1523438 C 7.089651 6.1523438 5.8230732 7.7738789 2.8632812 9.9238281 C 5.8230733 12.073779 7.9802763 13.863281 11.189453 13.863281 C 14.39863 13.863281 14.912797 11.386279 16.857422 9.9238281 C 13.897632 7.7738789 12.633005 6.1523437 9.8613281 6.1523438 z M 8.109375 7.3984375 A 1.5350523 1.5350523 0 0 1 9.6445312 8.9335938 A 1.5350523 1.5350523 0 0 1 8.109375 10.46875 A 1.5350523 1.5350523 0 0 1 6.5722656 8.9335938 A 1.5350523 1.5350523 0 0 1 8.109375 7.3984375 z " />
  </g>
</svg>
