<?xml version="1.0" encoding="UTF-8" standalone="no"?>
<svg
   width="20"
   height="20"
   viewBox="0 0 20 20"
   version="1.1"
   id="svg-icon"
   xmlns="http://www.w3.org/2000/svg"
   xmlns:svg="http://www.w3.org/2000/svg">
  <defs
     id="defs1" />
  <g
     id="g1">
    <path
       id="path1"
       style="fill:#ff0000;fill-opacity:1;stroke:none"
       d="M 10 0 A 10 10 0 0 0 0 10 A 10 10 0 0 0 10 20 A 10 10 0 0 0 20 10 A 10 10 0 0 0 10 0 z M 10 1 A 9 9 0 0 1 19 10 A 9 9 0 0 1 10 19 A 9 9 0 0 1 1 10 A 9 9 0 0 1 10 1 z M 10 3.3300781 C 7.0825062 3.3300781 4.7070315 5.7055524 4.7070312 8.6230469 C 4.7070311 11.530022 6.8737225 14.055438 9.5957031 17.802734 L 10 18.361328 L 10.404297 17.802734 C 13.126278 14.055438 15.292969 11.530022 15.292969 8.6230469 C 15.292969 5.7055523 12.917494 3.3300781 10 3.3300781 z M 10 4.3300781 C 12.377166 4.3300781 14.292969 6.24588 14.292969 8.6230469 C 14.292969 10.867853 12.483869 13.240787 10 16.640625 C 7.5161311 13.240787 5.7070313 10.867853 5.7070312 8.6230469 C 5.7070314 6.2458799 7.6228338 4.3300781 10 4.3300781 z M 10 5.7421875 A 2.238806 2.238806 0 0 0 7.7617188 7.9824219 A 2.238806 2.238806 0 0 0 10 10.220703 A 2.238806 2.238806 0 0 0 12.238281 7.9824219 A 2.238806 2.238806 0 0 0 10 5.7421875 z " />
  </g>
</svg>
