<?xml version="1.0" encoding="UTF-8" standalone="no"?>
<svg
   width="20"
   height="20"
   viewBox="0 0 20 20"
   version="1.1"
   id="svg-icon"
   xmlns="http://www.w3.org/2000/svg"
   xmlns:svg="http://www.w3.org/2000/svg">
  <defs
     id="defs1" />
  <g
     id="g1">
    <path
       id="path1"
       style="stroke:none;fill:#ff0000;fill-opacity:1"
       d="M 10 0 A 10 10 0 0 0 0 10 A 10 10 0 0 0 10 20 A 10 10 0 0 0 20 10 A 10 10 0 0 0 10 0 z M 10 1 A 9 9 0 0 1 19 10 A 9 9 0 0 1 10 19 A 9 9 0 0 1 1 10 A 9 9 0 0 1 10 1 z M 10.177734 3.25 C 9.0638755 3.25 8.1437369 3.3367187 7.4160156 3.5117188 C 6.7031458 3.6867188 6.0643552 3.9195313 5.5 4.2070312 C 5.5297028 4.4570312 5.5819927 4.7242188 5.65625 5.0117188 C 5.7305072 5.2867188 5.8112818 5.5628906 5.9003906 5.8378906 C 6.0043507 6.1003906 6.1089304 6.3554688 6.2128906 6.6054688 C 6.3168508 6.8429687 6.4128443 7.0445313 6.5019531 7.2070312 L 7.2597656 7.2070312 L 7.9941406 4.7304688 C 8.1129522 4.6554691 8.2916735 4.5929687 8.5292969 4.5429688 C 8.7669201 4.4929688 9.0416351 4.46875 9.3535156 4.46875 C 9.7099501 4.46875 10.006518 4.5242188 10.244141 4.6367188 C 10.496617 4.7367187 10.697189 4.8757813 10.845703 5.0507812 C 11.00907 5.2257813 11.122235 5.4304688 11.181641 5.6679688 C 11.255897 5.8929688 11.292969 6.1257813 11.292969 6.3632812 C 11.292969 6.7882812 11.195022 7.1632814 11.001953 7.4882812 C 10.823735 7.8132814 10.60131 8.1187501 10.333984 8.40625 C 10.08151 8.69375 9.813428 8.975 9.53125 9.25 C 9.2490723 9.5250001 9.0114283 9.8304685 8.8183594 10.167969 C 8.6252905 10.505469 8.5008115 10.8875 8.4414062 11.3125 C 8.3968518 11.725 8.4776265 12.217969 8.6855469 12.792969 L 9.4199219 12.792969 C 9.4199219 12.26797 9.5463531 11.825391 9.7988281 11.462891 C 10.051303 11.100391 10.363089 10.775781 10.734375 10.488281 C 11.120513 10.188282 11.530245 9.9121095 11.960938 9.6621094 C 12.40648 9.3996089 12.814261 9.1183597 13.185547 8.8183594 C 13.556833 8.5058595 13.86862 8.15 14.121094 7.75 C 14.37357 7.3500001 14.5 6.8691405 14.5 6.3066406 C 14.5 5.8691407 14.39542 5.4628905 14.1875 5.0878906 C 13.994432 4.7128906 13.704497 4.3933594 13.318359 4.1308594 C 12.947073 3.8558595 12.495589 3.6441405 11.960938 3.4941406 C 11.441135 3.3316406 10.846049 3.25 10.177734 3.25 z M 9.2871094 13.769531 C 8.7227541 13.769531 8.2693178 13.90664 7.9277344 14.181641 C 7.5861508 14.456641 7.4160156 14.819531 7.4160156 15.269531 C 7.4160156 15.719531 7.5861508 16.080469 7.9277344 16.355469 C 8.2693178 16.617969 8.7227541 16.75 9.2871094 16.75 C 9.8514644 16.75 10.311533 16.617969 10.667969 16.355469 C 11.024403 16.080469 11.203125 15.719531 11.203125 15.269531 C 11.203125 14.819531 11.024403 14.456641 10.667969 14.181641 C 10.311533 13.90664 9.8514644 13.769531 9.2871094 13.769531 z " />
  </g>
</svg>
