<?xml version="1.0" encoding="UTF-8" standalone="no"?>
<svg
   width="20"
   height="20"
   viewBox="0 0 20 20"
   version="1.1"
   id="svg-icon"
   xmlns="http://www.w3.org/2000/svg"
   xmlns:svg="http://www.w3.org/2000/svg">
  <defs
     id="defs1" />
  <g
     id="g1">
    <path
       id="path1"
       style="fill:#ff0000;stroke:none"
       d="M 10 0 C 4.4771525 0 0 4.4771525 0 10 C 0 15.522847 4.4771525 20 10 20 C 10.337499 20 10.671094 19.983832 11 19.951172 L 11 18.945312 C 10.671615 18.98162 10.338065 19 10 19 C 5.0294373 19 1 14.970563 1 10 C 1 5.0294373 5.0294373 1 10 1 C 14.970563 1 19 5.0294373 19 10 C 19 10.338009 18.981612 10.671666 18.945312 11 L 19.951172 11 C 19.983828 10.671094 20 10.337499 20 10 C 20 4.4771525 15.522847 0 10 0 z M 9 4 L 9 9 L 4 9 L 4 11 L 9 11 L 9 16 L 11 16 L 11 11 L 16 11 L 16 9 L 11 9 L 11 4 L 9 4 z M 13 14 L 13 20 L 20 20 L 20 15 L 18 15 L 18 14 L 13 14 z M 14 15 L 17 15 L 17 16 L 19 16 L 19 19 L 14 19 L 14 15 z " />
  </g>
</svg>
