<?xml version="1.0" encoding="UTF-8" standalone="no"?>
<svg
   viewBox="0 0 20 20"
   version="1.1"
   id="svg-icon"
   xmlns="http://www.w3.org/2000/svg"
   xmlns:svg="http://www.w3.org/2000/svg">
  <defs
     id="defs1" />
  <g
     id="g1">
    <path
       id="path1"
       style="opacity:1;fill:#ff0000;stroke:none"
       d="M 2 0 A 2 2 0 0 0 0 2 A 2 2 0 0 0 2 4 A 2 2 0 0 0 3.6367188 3.1484375 L 16.011719 7.7890625 A 2 2 0 0 0 16 7.9492188 L 6.7753906 10.078125 A 2 2 0 0 0 5 9 A 2 2 0 0 0 3 11 A 2 2 0 0 0 5 13 A 2 2 0 0 0 6.1269531 12.652344 L 11.212891 17.101562 A 2 2 0 0 0 11 18 A 2 2 0 0 0 13 20 A 2 2 0 0 0 15 18 A 2 2 0 0 0 13 16 A 2 2 0 0 0 11.873047 16.347656 L 6.7871094 11.896484 A 2 2 0 0 0 7 11.050781 L 16.224609 8.921875 A 2 2 0 0 0 18 10 A 2 2 0 0 0 20 8 A 2 2 0 0 0 18 6 A 2 2 0 0 0 16.363281 6.8515625 L 3.9882812 2.2109375 A 2 2 0 0 0 4 2 A 2 2 0 0 0 2 0 z " />
  </g>
</svg>
