<?xml version="1.0" encoding="UTF-8" standalone="no"?>
<svg
   width="20"
   height="20"
   viewBox="0 0 20 20"
   version="1.1"
   id="svg-icon"
   xmlns="http://www.w3.org/2000/svg"
   xmlns:svg="http://www.w3.org/2000/svg">
  <defs
     id="defs1" />
  <g
     id="g1">
    <path
       id="path1"
       style="fill:#ff0000;stroke:none"
       d="M 9.0062334,1.0558317 C 4.0665054,1.6046734 0.50698904,6.0540384 1.0558316,10.993766 1.6046735,15.933494 6.0540376,19.49301 10.993766,18.944168 15.933493,18.395326 19.49301,13.945962 18.944168,9.0062336 18.669747,6.53637 17.420195,4.4115589 15.621783,2.9728191 l 0.624642,-0.7807979 c 1.998236,1.5985996 3.386627,3.9595006 3.691539,6.703794 C 20.547788,14.384401 16.592771,19.32814 11.104184,19.937964 5.6155985,20.547788 0.67185976,16.59277 0.06203482,11.104184 -0.54778948,5.6155979 3.4072295,0.67185969 8.8958148,0.06203505 Z" />
    <path
       id="path1-5"
       style="fill:#ff0000;stroke:none"
       d="m 14.60673,6.6425754 1.327374,-4.0601552 3.669767,-2.18622756 -6.40256,-2.148e-5 z" />
  </g>
</svg>
