<?xml version="1.0" encoding="UTF-8" standalone="no"?>
<!-- Created with Inkscape (http://www.inkscape.org/) -->

<svg
   width="97"
   height="100"
   viewBox="0 0 25.664583 26.458333"
   version="1.1"
   id="svg-icon"
   xmlns="http://www.w3.org/2000/svg"
   xmlns:svg="http://www.w3.org/2000/svg">
  <defs
     id="defs1" />
  <g
     id="defs1">
    <path
       d="M 0,26.45833 V 4.23457 h 18.499503 q 0.7721,-0.9891 1.420663,-1.70001 0.679447,-0.74182 0.988287,-0.95819 0.525028,-0.40182 0.957403,-0.74182 0.432376,-0.37091 0.741216,-0.68 -0.06177,0.21636 -0.09265,0.37091 -0.03088,0.12364 -0.03088,0.18545 0,0.12364 0.123536,0.12364 l 0.772099,-0.40182 v 0.12364 q 0,0.21636 0.123536,0.21636 0.09265,0 0.339723,-0.24727 Q 24.0895,0.27818 24.120384,0.15455 L 24.058614,0.55637 25.016018,0 24.79983,0.49455 q 0.401492,-0.30909 0.61768,-0.30909 0.123535,0 0.185304,0.12363 0.06177,0.12364 0.06177,0.24728 0,0.15454 -0.154419,0.40182 -0.123536,0.21636 -0.370608,0.52546 -0.216188,0.30909 -0.772099,0.92727 -0.555912,0.61819 -1.389779,1.54547 l -0.7721,0.83455 V 26.45833 Z M 1.8530385,24.60378 H 20.352541 V 7.0164 q -0.741215,0.92728 -1.63685,2.13274 -0.864752,1.20547 -1.729503,2.38002 -0.833867,1.17455 -1.482433,2.13274 -0.648563,0.95818 -0.926519,1.42182 l -1.729503,2.93638 q -1.142707,1.94729 -1.482431,2.38002 -0.401491,0.49455 -0.926519,0.89637 l -0.09265,-0.0618 -0.154419,-0.0618 h -0.09266 l -0.4014907,0.40182 q 0,-0.37091 -0.1235359,-0.37091 l -0.6485638,0.30909 q 0,-0.21636 -0.216188,-0.24727 L 8.462205,21.20382 q -0.1235359,0 -0.216188,0.0618 -0.092654,0.0309 -0.3397238,0.15454 L 7.8136391,21.2038 Q 7.3812642,20.49289 6.979773,19.56561 6.5782808,18.60742 6.2694417,17.77287 5.9606016,16.90741 5.8061821,16.44377 5.6826463,16.10377 5.5591094,15.36195 5.4355736,14.62012 5.2811541,13.50739 q 0.3706074,0.18546 0.4941433,0.18546 0.1544205,0 0.3397238,-0.58728 0.1235358,0.12364 0.30884,0.12364 0.1544196,0 0.2779554,-0.12364 l 0.4323759,-0.68 0.4941433,0.18545 h 0.061769 q 0.030885,0 0.092654,0 0.061769,-0.0309 0.1853042,-0.15454 0.1544196,-0.15455 0.3397238,-0.15455 l 0.061769,0.0309 q 0.7103313,0.34 0.8956356,1.23637 0.4323759,2.13274 1.0191716,2.13274 0.432376,0 1.142707,-1.08183 0.679447,-1.02 1.420662,-2.81274 0.06177,0.37091 0.123536,0.37091 0.154421,0 0.30884,-0.40182 0.06177,-0.18545 0.401492,-0.71091 0.339723,-0.55637 0.926519,-1.51456 0.432376,-0.71091 1.050056,-1.60728 0.648565,-0.92728 1.358896,-1.85455 H 1.8530385 Z"
       id="text1"
       style="font-size:50.8px;font-family:Cantarell;-inkscape-font-specification:Cantarell;fill:#000000;stroke:none;stroke-width:0.132292;stroke-linecap:round;stroke-linejoin:round;stroke-opacity:0.5"
       aria-label="🗹" />
  </g>
</svg>
